<svg fill="none" xmlns="http://www.w3.org/2000/svg" viewBox="0 0 10 9">
  <path d="M7.455.056L.721 2.291a1.07 1.07 0 00-.672 1.328L1.142 6.93a1.07 1.07 0 001.329.672l.656-.219s1.25.844 1.672 1.094c.312.172.734.047.875-.297.203-.453.703-1.875.703-1.875l2.828-.937a1.07 1.07 0 00.672-1.328L8.783.728A1.044 1.044 0 007.455.056z" fill="#fff"/>
  <path d="M1.892 3.822c-.218.047-.453-.063-.515-.281a.42.42 0 01.281-.547L7.127 1.18a.426.426 0 01.547.281.42.42 0 01-.282.547L1.924 3.822h-.032zm.469 1.438c-.219.046-.453-.063-.516-.282a.42.42 0 01.282-.547L7.595 2.62a.426.426 0 01.547.28.42.42 0 01-.28.548L2.392 5.26c0-.015-.015 0-.03 0zm.485 1.421c-.219.047-.453-.062-.516-.281a.42.42 0 01.281-.547l2.47-.812a.432.432 0 01.546.28.42.42 0 01-.281.548l-2.469.812h-.031z" fill="#E2E1E1"/>
</svg>
