<svg fill="none" xmlns="http://www.w3.org/2000/svg" viewBox="0 0 12 12">
  <path d="M10.364 11.911L.27 10.708a.293.293 0 01-.265-.344L1.208.27a.294.294 0 01.344-.265l10.093 1.203a.294.294 0 01.266.344l-1.203 10.093c-.016.157-.172.282-.344.266z" fill="#F8AA09"/>
  <path d="M1.083 9.599l1-8.36a.201.201 0 01.203-.172l8.36 1c.109.016.171.11.171.203l-1 8.36a.201.201 0 01-.203.172l-8.36-1c-.109 0-.171-.094-.171-.203z" fill="#FBBA38"/>
  <path d="M6.161 6.661l-.969.766a.418.418 0 01-.578-.063.416.416 0 00-.578-.062L2.614 8.427c-.281.218-.156.687.203.734l.172.016 3.36.406 1.89.219c.36.047.594-.375.375-.657L6.74 6.724a.418.418 0 00-.578-.063zM4.427 5.036a.719.719 0 01-.797.625.719.719 0 01-.625-.797.719.719 0 01.797-.625.72.72 0 01.625.797z" fill="#EE9F05"/>
</svg>
