<svg fill="none" xmlns="http://www.w3.org/2000/svg" viewBox="0 0 21 20">
  <path d="M15.158.102L1.486 4.43a2.136 2.136 0 00-1.39 2.672l2.812 8.906a2.136 2.136 0 002.672 1.39l1.328-.421s2.5 1.734 3.36 2.25c.625.375 1.484.093 1.78-.563.423-.922 1.454-3.781 1.454-3.781l5.734-1.813a2.137 2.137 0 001.391-2.672l-2.813-8.906c-.328-1.125-1.53-1.75-2.656-1.39z" fill="url(#2We9tpxYJ87La)"/>
  <path d="M15.205 4.71L4.111 8.228a.68.68 0 01-.859-.454.692.692 0 01.453-.859L14.8 3.398a.68.68 0 01.86.454.693.693 0 01-.454.859zm.985 3.142L5.095 11.367a.68.68 0 01-.86-.453.692.692 0 01.453-.86L15.783 6.54a.68.68 0 01.86.453c.109.344-.094.735-.454.86zm-5.094 5.046l-5 1.579a.692.692 0 01-.86-.454.692.692 0 01.453-.859l5-1.578c.36-.11.75.094.86.453.11.36-.094.75-.453.86z" fill="#EDB7D5"/>
  <defs>
    <linearGradient id="2We9tpxYJ87La" x1="23.682" y1="10.814" x2="4.128" y2="8.675" gradientUnits="userSpaceOnUse">
      <stop stop-color="#6FC7DA"/>
      <stop offset=".693" stop-color="#9E1460"/>
      <stop offset="1" stop-color="#E7267A"/>
    </linearGradient>
  </defs>
</svg>
