<svg fill="none" xmlns="http://www.w3.org/2000/svg" viewBox="0 0 4 8">
  <path d="M1.381 1.296s-.375 2.5.344 3.657c.719 1.156.828 1.328.828 1.328" fill="#ED8C61"/>
  <path d="M3.225 7.39a1.27 1.27 0 01-1.766-.453c-.015-.016-.14-.234-.812-1.297-.469-.75-.625-1.766-.64-2.656a9.675 9.675 0 01.109-1.875A1.306 1.306 0 011.6.015c.703.11 1.203.766 1.094 1.484a7.733 7.733 0 00-.078 1.22c0 .421.03.827.093 1.124.032.172.079.328.141.422a83.07 83.07 0 01.844 1.36c.36.609.156 1.406-.469 1.765z" fill="#F6AD86"/>
</svg>
