<svg fill="none" xmlns="http://www.w3.org/2000/svg" viewBox="0 0 41 25">
  <path d="M34.874.078L1.063 11.28c-.812.265-1.25 1.156-.984 1.968l3.28 9.891a1.565 1.565 0 001.97.985l3.328-1.11 1.625-.531c.406.281 1.453.969 1.875 1.219.375.218.89.047 1.078-.36.187-.453.625-1.64.781-2.093l8.219-2.72 16.906-5.609c.813-.265 1.25-1.156.984-1.968l-3.28-9.891a1.556 1.556 0 00-1.97-.984z" fill="url(#M6znCQE-DFAHa)"/>
  <defs>
    <linearGradient id="M6znCQE-DFAHa" x1="34.438" y1="27.31" x2=".069" y2="-9.145" gradientUnits="userSpaceOnUse">
      <stop stop-color="#6FC7DA"/>
      <stop offset="1" stop-color="#9E1460"/>
    </linearGradient>
  </defs>
</svg>
