<svg fill="none" xmlns="http://www.w3.org/2000/svg" viewBox="0 0 16 12">
  <g clip-path="url(#W8YOIM1wP03ra)">
    <mask id="W8YOIM1wP03rb" style="mask-type:luminance" maskUnits="userSpaceOnUse" x="0" y="0" width="16" height="12">
      <path fill-rule="evenodd" clip-rule="evenodd" d="M0 0l8 12 8-12H0z" fill="#fff"/>
    </mask>
    <g mask="url(#W8YOIM1wP03rb)" fill-rule="evenodd" clip-rule="evenodd">
      <path d="M8 0C1.4 0-4 5.4-4 12S1.4 24 8 24s12-5.4 12-12S14.6 0 8 0zm0 21c-5 0-9-4-9-9s4-9 9-9 9 4 9 9-4 9-9 9z" fill="#fff"/>
      <path d="M8 3c-5 0-9 4-9 9s4 9 9 9 9-4 9-9-4-9-9-9zm0 15c-3.3 0-6-2.7-6-6s2.7-6 6-6 6 2.7 6 6-2.7 6-6 6z" fill="#BDBDBD"/>
      <path d="M8 6c-3.3 0-6 2.7-6 6s2.7 6 6 6 6-2.7 6-6-2.7-6-6-6zm0 9c-1.7 0-3-1.3-3-3s1.3-3 3-3 3 1.3 3 3-1.3 3-3 3z" fill="#BDBDBD"/>
      <path d="M8 15a3 3 0 100-6 3 3 0 000 6z" fill="#BDBDBD"/>
    </g>
  </g>
  <defs>
    <clipPath id="W8YOIM1wP03ra">
      <path fill="#fff" d="M0 0h16v12H0z"/>
    </clipPath>
  </defs>
</svg>
